# xmcd
#
# Track frame offsets:
#	150
#	18897
#	41140
#	63917
#	84902
#	105267
#	126060
#	147667
#	167242
#	188209
#
# Disc length: 2799 seconds
#
# Revision: 3
# Processed by: cddbd v1.5.2PL0 Copyright (c) Steve Scherf et al.
# Submitted via: EasyCDDAExtractor 12.0.2.1
#
DISCID=7f0aed0a
DTITLE=杜德偉 - 不走完美
DYEAR=1997
DGENRE=Blues
TTITLE0=快樂快燒壞
TTITLE1=不走
TTITLE2=完美
TTITLE3=笨鳥
TTITLE4=你依然是我的寶貝
TTITLE5=笨女孩
TTITLE6=我和我的天使相戀
TTITLE7=太想你,太念你
TTITLE8=最怕聽情歌
TTITLE9=快樂快燒壞
EXTD=
EXTT0=
EXTT1=
EXTT2=
EXTT3=
EXTT4=
EXTT5=
EXTT6=
EXTT7=
EXTT8=
EXTT9=
PLAYORDER=
